<?xml version="1.0" encoding="UTF-8" standalone="no"?>
<!DOCTYPE svg PUBLIC "-//W3C//DTD SVG 1.1//EN" "http://www.w3.org/Graphics/SVG/1.1/DTD/svg11.dtd">
<svg width="100%" height="100%" viewBox="0 0 2092 859" version="1.1" xmlns="http://www.w3.org/2000/svg" xmlns:xlink="http://www.w3.org/1999/xlink" xml:space="preserve" xmlns:serif="http://www.serif.com/" style="fill-rule:evenodd;clip-rule:evenodd;stroke-linejoin:round;stroke-miterlimit:2;">
    <g transform="matrix(4.16667,0,0,4.16667,0,0)">
        <path d="M180.707,61.59L466.342,61.59L328.186,32.285L180.707,61.59Z" style="fill:rgb(182,178,163);"/>
        <path d="M131.699,184.5L78.126,184.518C74.25,184.656 70.38,184.743 66.573,184.743C54.188,184.743 41.409,184.031 31.604,175.376C24.067,168.721 20.879,159.486 20.879,149.613C20.879,146.645 21.153,143.694 21.618,140.764L28.153,99.645C30.261,86.377 36.242,74.675 48.236,67.844C58.178,62.182 69.043,61.59 80.171,61.59L149.076,61.59L329.483,23.399L498.663,61.59L501.711,40.731L332.815,0.561L152.119,40.731L80.171,40.731C65.048,40.731 51.352,42.043 37.904,49.701C20.319,59.714 10.649,76.759 7.533,96.368L0.998,137.486C0.361,141.499 0,145.549 0,149.613C0,165.515 5.73,180.381 17.785,191.027C31.904,203.491 48.535,205.622 66.573,205.622C70.546,205.622 74.52,205.534 78.49,205.398L128.647,205.395L131.699,184.5Z" style="fill:rgb(190,205,48);"/>
        <path d="M442.561,120.648L447.101,91.844C451.273,91.295 455.854,91.01 459.801,91.01C471.487,91.01 476.209,94.124 476.209,101.838C476.209,103.08 476.066,104.445 475.842,105.909C473.907,118.144 466.437,121.196 454.592,121.196C450.54,121.196 446.51,121.155 442.561,120.648ZM440.709,132.331C444.373,132.556 449.218,132.758 453.43,132.758L465.969,165.877L482.927,165.877L468.921,131.232C479.934,128.484 487.852,121.564 490.295,105.95C490.662,103.59 490.845,101.472 490.845,99.519C490.845,82.623 477.471,79.651 461.165,79.651C451.496,79.651 441.237,80.608 434.094,81.89L420.78,165.877L435.376,165.877L440.709,132.331ZM394.389,154.173C385.231,154.173 382.259,152.708 382.259,146.783C382.259,145.175 382.482,143.262 382.849,140.962L384.863,128.261L419.346,128.261L421.178,116.658L386.695,116.658L388.487,105.443C390.216,94.593 392.557,92.211 404.223,92.211L426.675,92.211L428.466,80.873C422.401,80.568 412.323,80.282 406.46,80.282C391.602,80.282 377.76,81.096 374.686,100.454L367.459,145.928C367.174,147.801 367.032,149.491 367.032,151.017C367.032,165.449 379.448,166.101 392.863,166.101C398.725,166.101 408.902,165.816 415.07,165.511L416.861,154.173L394.389,154.173ZM349.597,165.877L367.349,165.877L340.947,121.401L380.255,80.506L363.359,80.506L326.374,120.077L332.622,80.506L318.048,80.506L304.53,165.877L319.127,165.877L325.742,123.965L349.597,165.877Z" style="fill:rgb(190,205,48);fill-rule:nonzero;"/>
        <path d="M144.102,177.746L140.398,181.977L144.776,181.977L149.653,177.746L144.102,177.746ZM140.388,200.953C139.12,200.953 138.705,200.706 138.705,199.823C138.705,199.57 138.741,199.254 138.799,198.887L139.104,196.966L147.012,196.966L147.77,192.177L139.861,192.177L140.114,190.564C140.372,188.927 140.724,188.538 142.371,188.538L148.716,188.538L149.432,183.834C148.174,183.761 144.939,183.655 143.223,183.655C139.152,183.655 135.416,183.866 134.537,189.416L132.849,200.044C132.764,200.601 132.717,201.111 132.717,201.57C132.717,205.641 136.063,205.835 139.719,205.835C141.046,205.835 144.612,205.695 146.007,205.621L146.743,200.953L140.388,200.953Z" style="fill:rgb(64,63,65);fill-rule:nonzero;"/>
        <path d="M156.094,193.361L156.889,188.306C157.458,188.232 158.073,188.195 158.594,188.195C160.603,188.195 161.319,188.705 161.319,189.988C161.319,190.227 161.303,190.493 161.256,190.779C160.925,192.888 159.704,193.435 157.72,193.435C157.174,193.435 156.632,193.43 156.094,193.361ZM148.376,205.779L154.132,205.779L155.352,198.102C155.852,198.139 156.536,198.171 157.104,198.171C162.219,198.171 166.006,196.855 166.964,190.779C167.069,190.094 167.127,189.469 167.127,188.895C167.127,184.276 163.65,183.491 159.236,183.491C156.463,183.491 153.922,183.761 151.791,184.175L148.376,205.779Z" style="fill:rgb(64,63,65);fill-rule:nonzero;"/>
        <path d="M174.834,181.882L179.705,177.652L174.17,177.652L170.472,181.882L174.834,181.882ZM169.782,183.713L166.29,205.779L172.062,205.779L175.549,183.713L169.782,183.713Z" style="fill:rgb(64,63,65);fill-rule:nonzero;"/>
        <path d="M181.776,188.573L179.05,205.779L184.843,205.779L187.569,188.573L192.477,188.573L193.245,183.713L177.694,183.713L176.924,188.573L181.776,188.573Z" style="fill:rgb(64,63,65);fill-rule:nonzero;"/>
        <path d="M208.088,181.819L212.776,177.589L207.367,177.589L203.799,181.819L208.088,181.819ZM201.137,181.819L205.825,177.589L200.407,177.589L196.839,181.819L201.137,181.819ZM197.871,194.74C198.47,190.973 198.907,188.415 201.874,188.415C203.747,188.415 204.284,189.416 204.284,191.095C204.284,192.1 204.094,193.329 203.868,194.74C203.269,198.528 202.853,201.043 199.875,201.043C198.002,201.043 197.46,200.049 197.46,198.365C197.46,197.37 197.65,196.139 197.871,194.74ZM210.124,190.3C210.124,185.524 208.071,183.491 202.653,183.491C195.787,183.491 193.293,186.753 192.025,194.74C191.762,196.424 191.61,197.891 191.61,199.17C191.61,203.963 193.667,206 199.085,206C205.962,206 208.44,202.732 209.708,194.74C209.972,193.051 210.124,191.577 210.124,190.3Z" style="fill:rgb(64,63,65);fill-rule:nonzero;"/>
        <path d="M217.567,196.597L220.356,190.036L221.124,196.597L217.567,196.597ZM213.653,205.779L215.605,201.196L221.671,201.196L222.213,205.779L228.32,205.779L225.159,187.554C224.675,184.803 223.528,183.491 221.618,183.491C219.598,183.491 218.197,184.617 216.74,187.554L207.707,205.779L213.653,205.779Z" style="fill:rgb(64,63,65);fill-rule:nonzero;"/>
        <path d="M239.571,187.349C238.672,184.471 237.466,183.491 235.604,183.491C233.463,183.491 231.989,184.864 231.48,188.073L228.675,205.779L233.9,205.779L236.088,191.967L239.239,202.143C240.187,205.183 241.159,206 243.191,206C245.39,206 246.826,204.615 247.337,201.395L250.141,183.713L244.917,183.713L242.737,197.476L239.571,187.349Z" style="fill:rgb(64,63,65);fill-rule:nonzero;"/>
        <path d="M260.039,197.313L269.183,183.713L263.138,183.713L258.118,191.368L255.678,183.713L249.422,183.713L254.273,197.313L252.926,205.779L258.696,205.779L260.039,197.313Z" style="fill:rgb(64,63,65);fill-rule:nonzero;"/>
        <path d="M271.778,196.597L274.568,190.036L275.335,196.597L271.778,196.597ZM267.865,205.779L269.815,201.196L275.882,201.196L276.425,205.779L282.533,205.779L279.371,187.554C278.886,184.803 277.74,183.491 275.829,183.491C273.81,183.491 272.409,184.617 270.952,187.554L261.918,205.779L267.865,205.779Z" style="fill:rgb(64,63,65);fill-rule:nonzero;"/>
        <path d="M301.475,184.248C299.159,183.713 296.861,183.497 294.277,183.497C286.981,183.497 284.591,186.833 283.34,194.755C283.076,196.424 282.924,197.891 282.924,199.17C282.924,203.884 284.958,206 290.705,206C295.135,206 298.412,205.762 299.155,201.127L300.47,192.84L292.241,192.84L291.51,197.439L294.646,197.439L294.361,199.238C294.135,200.653 293.757,201.107 292.172,201.107C289.57,201.107 288.848,199.891 288.848,197.912C288.848,197.002 289,195.93 289.19,194.755C289.768,191.09 290.384,188.443 294.22,188.443C296.267,188.443 298.307,188.548 300.244,188.858L301.475,184.248Z" style="fill:rgb(64,63,65);fill-rule:nonzero;"/>
        <path d="M320.253,205.779L327.219,205.779L322.899,194.245L330.674,183.713L323.941,183.713L316.769,193.941L318.391,183.713L312.615,183.713L309.116,205.779L314.891,205.779L316.608,194.945L320.253,205.779Z" style="fill:rgb(64,63,65);fill-rule:nonzero;"/>
        <path d="M336.157,200.953C334.883,200.953 334.468,200.706 334.468,199.823C334.468,199.57 334.505,199.254 334.562,198.887L334.866,196.966L342.775,196.966L343.532,192.177L335.625,192.177L335.876,190.564C336.136,188.927 336.487,188.538 338.134,188.538L344.48,188.538L345.206,183.834C343.927,183.761 340.701,183.655 338.987,183.655C334.915,183.655 331.178,183.866 330.299,189.416L328.611,200.044C328.517,200.611 328.48,201.111 328.48,201.574C328.48,205.641 331.815,205.835 335.474,205.835C336.799,205.835 340.375,205.695 341.77,205.621L342.507,200.953L336.157,200.953Z" style="fill:rgb(64,63,65);fill-rule:nonzero;"/>
        <path d="M351.888,193.179L352.656,188.306C353.225,188.232 353.84,188.195 354.367,188.195C356.397,188.195 357.114,188.726 357.114,189.958C357.114,190.18 357.088,190.415 357.05,190.679C356.729,192.699 355.514,193.252 353.525,193.252C352.967,193.252 352.426,193.241 351.888,193.179ZM351.131,197.949C351.467,197.981 351.888,197.998 352.295,198.008L355.125,205.779L361.659,205.779L358.287,197.176C360.563,196.224 362.158,194.315 362.728,190.699C362.832,190.027 362.892,189.416 362.892,188.868C362.892,184.308 359.418,183.491 355.005,183.491C352.231,183.491 349.689,183.761 347.57,184.175L344.141,205.779L349.89,205.779L351.131,197.949Z" style="fill:rgb(64,63,65);fill-rule:nonzero;"/>
        <path d="M370.606,200.953C369.332,200.953 368.916,200.706 368.916,199.823C368.916,199.57 368.954,199.254 369.01,198.887L369.317,196.966L377.224,196.966L377.981,192.177L370.074,192.177L370.325,190.564C370.583,188.927 370.937,188.538 372.584,188.538L378.929,188.538L379.652,183.834C378.377,183.761 375.151,183.655 373.435,183.655C369.362,183.655 365.627,183.866 364.748,189.416L363.061,200.044C362.965,200.611 362.93,201.111 362.93,201.574C362.93,205.641 366.265,205.835 369.92,205.835C371.247,205.835 374.824,205.695 376.219,205.621L376.957,200.953L370.606,200.953Z" style="fill:rgb(64,63,65);fill-rule:nonzero;"/>
        <path d="M387.638,198.986C387.638,199.097 387.627,199.213 387.607,199.333C387.402,200.621 386.528,201.138 384.651,201.138C382.976,201.138 380.339,200.827 378.872,200.58L377.578,205.199C379.33,205.621 381.525,206 384.186,206C389.436,206 392.749,204.168 393.557,199.07C393.656,198.418 393.714,197.822 393.714,197.271C393.714,194.568 392.352,193.078 388.717,192.025C386.775,191.467 385.855,191.205 385.855,190.162C385.855,190.058 385.865,189.937 385.88,189.816C386.116,188.327 387.874,188.254 389.405,188.254C391.142,188.254 393.004,188.563 394.415,188.821L395.655,184.314C394.188,183.945 391.679,183.497 389.11,183.497C383.98,183.497 380.87,185.107 380.078,190.142C379.992,190.663 379.956,191.147 379.956,191.588C379.956,194.72 381.982,195.96 385.213,197.055C386.896,197.623 387.638,198.049 387.638,198.986Z" style="fill:rgb(64,63,65);fill-rule:nonzero;"/>
        <path d="M404.99,205.779L411.955,205.779L407.637,194.245L415.412,183.713L408.681,183.713L401.508,193.941L403.128,183.713L397.351,183.713L393.853,205.779L399.629,205.779L401.345,194.945L404.99,205.779Z" style="fill:rgb(64,63,65);fill-rule:nonzero;"/>
        <path d="M420.114,200.953C418.84,200.953 418.424,200.706 418.424,199.823C418.424,199.57 418.462,199.254 418.519,198.887L418.824,196.966L426.732,196.966L427.489,192.177L419.582,192.177L419.833,190.564C420.091,188.927 420.444,188.538 422.092,188.538L428.437,188.538L429.162,183.834C427.885,183.761 424.658,183.655 422.943,183.655C418.87,183.655 415.135,183.866 414.257,189.416L412.569,200.044C412.474,200.611 412.439,201.111 412.439,201.574C412.439,205.641 415.772,205.835 419.428,205.835C420.754,205.835 424.332,205.695 425.727,205.621L426.465,200.953L420.114,200.953Z" style="fill:rgb(64,63,65);fill-rule:nonzero;"/>
        <path d="M436.605,188.49C436.876,188.448 437.236,188.41 437.635,188.41C440.655,188.41 441.424,189.71 441.424,191.689C441.424,192.589 441.259,193.631 441.082,194.755C440.514,198.355 440.012,201.107 435.615,201.107C435.219,201.107 434.878,201.07 434.611,201.032L436.605,188.49ZM431.494,184.218L428.155,205.315C430.094,205.731 432.604,206 435.409,206C443.602,206 445.665,202.248 446.857,194.755C447.127,193.078 447.283,191.594 447.283,190.284C447.283,185.77 445.331,183.497 438.978,183.497C436.262,183.497 433.517,183.796 431.494,184.218Z" style="fill:rgb(64,63,65);fill-rule:nonzero;"/>
        <path d="M458.812,177.746L455.109,181.977L459.486,181.977L464.364,177.746L458.812,177.746ZM455.098,200.953C453.831,200.953 453.415,200.706 453.415,199.823C453.415,199.57 453.451,199.254 453.51,198.887L453.816,196.966L461.723,196.966L462.481,192.177L454.57,192.177L454.824,190.564C455.082,188.927 455.435,188.538 457.08,188.538L463.427,188.538L464.143,183.834C462.884,183.761 459.65,183.655 457.934,183.655C453.861,183.655 450.126,183.866 449.248,189.416L447.561,200.044C447.476,200.601 447.427,201.111 447.427,201.57C447.427,205.641 450.774,205.835 454.43,205.835C455.756,205.835 459.323,205.695 460.718,205.621L461.453,200.953L455.098,200.953Z" style="fill:rgb(64,63,65);fill-rule:nonzero;"/>
        <path d="M472.135,198.986C472.135,199.097 472.124,199.213 472.104,199.333C471.899,200.621 471.026,201.138 469.147,201.138C467.475,201.138 464.84,200.827 463.372,200.58L462.078,205.199C463.829,205.621 466.024,206 468.685,206C473.935,206 477.25,204.168 478.053,199.07C478.153,198.418 478.213,197.822 478.213,197.271C478.213,194.568 476.851,193.078 473.214,192.025C471.275,191.467 470.352,191.205 470.352,190.162C470.352,190.058 470.362,189.937 470.378,189.816C470.617,188.327 472.373,188.254 473.904,188.254C475.639,188.254 477.505,188.563 478.911,188.821L480.154,184.314C478.686,183.945 476.176,183.497 473.61,183.497C468.479,183.497 465.371,185.107 464.577,190.142C464.492,190.663 464.454,191.147 464.454,191.588C464.454,194.72 466.481,195.96 469.71,197.055C471.395,197.623 472.135,198.049 472.135,198.986Z" style="fill:rgb(64,63,65);fill-rule:nonzero;"/>
        <path d="M288.115,80.506L279.178,137.135C277.979,144.788 274.965,147.313 267.35,147.313C260.939,147.313 258.456,145.604 258.456,140.719C258.456,139.658 258.557,138.478 258.78,137.135L267.718,80.506L245.734,80.506L236.94,136.179C236.472,139.293 236.207,142.122 236.207,144.646C236.207,161.907 247.219,166.733 264.278,166.733C283.799,166.733 297.538,160.402 301.386,136.179L310.179,80.506L288.115,80.506Z" style="fill:rgb(64,63,65);fill-rule:nonzero;"/>
        <path d="M146.506,107.844C145.224,116.006 140.501,118.123 132.827,118.123C130.71,118.123 128.613,118.103 126.537,117.838L129.61,98.276C131.809,97.991 134.191,97.849 136.206,97.849C143.982,97.849 146.75,99.824 146.75,104.789C146.75,105.707 146.689,106.744 146.506,107.844ZM169.223,100.557C169.223,82.684 155.768,79.651 138.69,79.651C127.962,79.651 118.131,80.69 109.886,82.297L96.675,165.877L118.945,165.877L123.667,136.179C125.601,136.32 128.246,136.444 130.445,136.444C150.23,136.444 164.886,131.355 168.591,107.844C168.999,105.196 169.223,102.775 169.223,100.557Z" style="fill:rgb(64,63,65);fill-rule:nonzero;"/>
        <path d="M102.443,92.485L49.607,92.485C48.242,95.201 47.205,98.517 46.563,102.571L40.029,143.689C39.663,145.888 39.52,147.821 39.52,149.613C39.52,165.348 52.426,166.101 66.573,166.101C71.703,166.101 85.545,165.551 90.939,165.267L93.788,147.211L69.219,147.211C64.293,147.211 62.685,146.254 62.685,142.835C62.685,141.858 62.828,140.636 63.051,139.211L64.233,131.781L94.827,131.781L97.758,113.258L67.163,113.258L68.14,107.009C69.138,100.678 70.502,99.172 76.873,99.172L101.422,99.172" style="fill:rgb(64,63,65);fill-rule:nonzero;"/>
        <path d="M212.686,123.232C210.488,137.155 208.554,147.801 191.537,147.801C190.01,147.801 188.687,147.658 187.65,147.516L195.363,98.989C196.422,98.826 197.807,98.684 199.353,98.684C211.038,98.684 214.009,103.71 214.009,111.364C214.009,114.846 213.379,118.876 212.686,123.232ZM204.544,79.672C194.04,79.672 183.415,80.832 175.599,82.46L162.673,164.086C170.184,165.694 179.893,166.733 190.743,166.733C222.437,166.733 230.416,152.218 235.037,123.232C236.075,116.738 236.686,110.998 236.686,105.93C236.686,88.465 229.134,79.672 204.544,79.672Z" style="fill:rgb(64,63,65);fill-rule:nonzero;"/>
        <path d="M104.219,80.978C99.273,80.693 86.795,80.286 80.158,80.286C76.978,80.286 73.852,80.32 70.858,80.549C70.831,80.551 70.805,80.553 70.779,80.556C69.328,80.669 67.91,80.831 66.532,81.054C66.475,81.064 66.418,81.072 66.362,81.082C65.711,81.19 65.071,81.317 64.439,81.456C64.343,81.478 64.249,81.5 64.154,81.523C62.908,81.811 61.704,82.17 60.547,82.608C60.425,82.652 60.304,82.698 60.184,82.746C59.641,82.962 59.108,83.194 58.587,83.449C58.478,83.503 58.371,83.563 58.262,83.617C57.808,83.85 57.363,84.1 56.927,84.365C56.828,84.426 56.726,84.482 56.629,84.543C56.157,84.843 55.7,85.17 55.253,85.514C55.116,85.618 54.982,85.726 54.849,85.834C54.412,86.189 53.984,86.56 53.574,86.962C53.478,87.055 53.387,87.158 53.293,87.256C52.956,87.6 52.63,87.963 52.312,88.342C52.188,88.49 52.063,88.634 51.943,88.787C51.588,89.237 51.247,89.713 50.919,90.211C50.798,90.397 50.68,90.59 50.562,90.783C50.299,91.212 50.046,91.657 49.802,92.122C49.738,92.244 49.67,92.36 49.607,92.485L102.443,92.485L104.219,80.978Z" style="fill:rgb(190,205,48);fill-rule:nonzero;"/>
    </g>
</svg>
