<?xml version="1.0" encoding="UTF-8" standalone="no"?>
<!DOCTYPE svg PUBLIC "-//W3C//DTD SVG 1.1//EN" "http://www.w3.org/Graphics/SVG/1.1/DTD/svg11.dtd">
<svg width="100%" height="100%" viewBox="0 0 270 358" version="1.1" xmlns="http://www.w3.org/2000/svg" xmlns:xlink="http://www.w3.org/1999/xlink" xml:space="preserve" xmlns:serif="http://www.serif.com/" style="fill-rule:evenodd;clip-rule:evenodd;stroke-linejoin:round;stroke-miterlimit:2;">
    <g transform="matrix(4.16667,0,0,4.16667,-164.667,-334.525)">
        <path d="M102.443,92.485L49.607,92.485C48.242,95.201 47.205,98.517 46.563,102.571L40.029,143.689C39.663,145.888 39.52,147.821 39.52,149.613C39.52,165.348 52.426,166.101 66.573,166.101C71.703,166.101 85.545,165.551 90.939,165.267L93.788,147.211L69.219,147.211C64.293,147.211 62.685,146.254 62.685,142.835C62.685,141.858 62.828,140.636 63.051,139.211L64.233,131.781L94.827,131.781L97.758,113.258L67.163,113.258L68.14,107.009C69.138,100.678 70.502,99.172 76.873,99.172L101.422,99.172" style="fill:rgb(64,63,65);fill-rule:nonzero;"/>
    </g>
    <g transform="matrix(4.16667,0,0,4.16667,-164.667,-334.525)">
        <path d="M104.219,80.978C99.273,80.693 86.795,80.286 80.158,80.286C76.978,80.286 73.852,80.32 70.858,80.549C70.831,80.551 70.805,80.553 70.779,80.556C69.328,80.669 67.91,80.831 66.532,81.054C66.475,81.064 66.418,81.072 66.362,81.082C65.711,81.19 65.071,81.317 64.439,81.456C64.343,81.478 64.249,81.5 64.154,81.523C62.908,81.811 61.704,82.17 60.547,82.608C60.425,82.652 60.304,82.698 60.184,82.746C59.641,82.962 59.108,83.194 58.587,83.449C58.478,83.503 58.371,83.563 58.262,83.617C57.808,83.85 57.363,84.1 56.927,84.365C56.828,84.426 56.726,84.482 56.629,84.543C56.157,84.843 55.7,85.17 55.253,85.514C55.116,85.618 54.982,85.726 54.849,85.834C54.412,86.189 53.984,86.56 53.574,86.962C53.478,87.055 53.387,87.158 53.293,87.256C52.956,87.6 52.63,87.963 52.312,88.342C52.188,88.49 52.063,88.634 51.943,88.787C51.588,89.237 51.247,89.713 50.919,90.211C50.798,90.397 50.68,90.59 50.562,90.783C50.299,91.212 50.046,91.657 49.802,92.122C49.738,92.244 49.67,92.36 49.607,92.485L102.443,92.485L104.219,80.978Z" style="fill:rgb(190,205,48);fill-rule:nonzero;"/>
    </g>
</svg>
